# xmcd
#
# Track frame offsets:
#	150
#	17697
#	34435
#	56807
#	80635
#	95402
#	112700
#	125972
#	142665
#	154235
#	170355
#	189725
#	200997
#	211712
#	234582
#
# Disc length: 3483 seconds
#
# Revision: 3
# Processed by: cddbd v1.5.1PL0 Copyright (c) Steve Scherf et al.
# Submitted via: audiograbber 1.83.01
#
DISCID=d30d990f
DTITLE=Fresh Fruit - Va Mix - Fresh Fruit - Cocktail 01
DYEAR=1992
DGENRE=House
TTITLE0=The Goodman - Give It Up (Batacuda Refrescante Mix) 
TTITLE1=Plaid - Scoobs In Columbia (Original Album Mix)
TTITLE2=Deborah Wilson - Got To Be Free (Exposure Mix) 
TTITLE3=Rejuvination - Work - The Double Back Backer (EP Mix) 
TTITLE4=280 West - Scattered Dreams (Boom Chocka-Boom Mix)
TTITLE5=Radical Nomads - La Da's Dance (Happy Remix)
TTITLE6=Hex - Allright To Love (Exposure Mix)
TTITLE7=Chez Damier - Help Myself (Reconstructed By Carl Craig)
TTITLE8=Groove Decade - Dispute (You're Such A Baby) (Brussels By Night Mix) 
TTITLE9=Jump - Funkaterium
TTITLE10=Nightcrawlers - Push The Feeling On (Dub Of Doom)
TTITLE11=Full Moon Entertainment - Jewel 69
TTITLE12=6 Bells After All - Heifer
TTITLE13=René Et Gaston - Coupe Brésil 
TTITLE14=Stacatto Please - Concerto in E
EXTD=
EXTT0=
EXTT1=
EXTT2=
EXTT3=
EXTT4=
EXTT5=
EXTT6=
EXTT7=
EXTT8=
EXTT9=
EXTT10=
EXTT11=
EXTT12=
EXTT13=
EXTT14=
PLAYORDER=
